<svg width="32" height="32" viewBox="0 0 32 32" fill="none" xmlns="http://www.w3.org/2000/svg">
<path d="M15.2 3.13333L8.33334 10C8.06667 10.2667 8.06667 10.68 8.33334 10.9467L10.64 13.2533C10.9067 13.52 11.32 13.52 11.5867 13.2533L18.4533 6.38667C18.72 6.12 18.72 5.70667 18.4533 5.44L16.1467 3.13333C15.88 2.88 15.4667 2.88 15.2 3.13333Z" fill="#2B59FF"/>
<path d="M20.4 8.34667L8.33334 20.4133C8.06667 20.68 8.06667 21.0933 8.33334 21.36L10.64 23.6667C10.9067 23.9333 11.32 23.9333 11.5867 23.6667L23.6533 11.6C23.92 11.3333 23.92 10.92 23.6533 10.6533L21.3467 8.34667C21.0934 8.08 20.6667 8.08 20.4 8.34667Z" fill="#2B59FF"/>
<path d="M25.6133 13.5467L13.5467 25.6133C13.28 25.88 13.28 26.2933 13.5467 26.56L15.8534 28.8667C16.12 29.1333 16.5333 29.1333 16.8 28.8667L28.8667 16.8C29.1333 16.5333 29.1333 16.12 28.8667 15.8533L26.56 13.5467C26.2934 13.28 25.8667 13.28 25.6133 13.5467Z" fill="#2B59FF"/>
<path d="M5.45334 18.4533L3.14666 16.1467C2.87999 15.88 2.87999 15.4667 3.14666 15.2L5.45334 12.8933C5.72 12.6267 6.13333 12.6267 6.39999 12.8933L8.70667 15.2C8.97334 15.4667 8.97334 15.88 8.70667 16.1467L6.39999 18.4533C6.13333 18.72 5.70667 18.72 5.45334 18.4533Z" fill="#2B59FF"/>
</svg>
