<svg width="22" height="18" viewBox="0 0 22 18" fill="none" xmlns="http://www.w3.org/2000/svg">
<path d="M20.15 3.21163C19.74 2.99163 18.88 2.76163 17.71 3.58163L16.24 4.62163C16.13 1.51163 14.78 0.291626 11.5 0.291626H5.5C2.08 0.291626 0.75 1.62163 0.75 5.04163V13.0416C0.75 15.3416 2 17.7916 5.5 17.7916H11.5C14.78 17.7916 16.13 16.5716 16.24 13.4616L17.71 14.5016C18.33 14.9416 18.87 15.0816 19.3 15.0816C19.67 15.0816 19.96 14.9716 20.15 14.8716C20.56 14.6616 21.25 14.0916 21.25 12.6616V5.42163C21.25 3.99163 20.56 3.42163 20.15 3.21163ZM10 8.42163C8.97 8.42163 8.12 7.58163 8.12 6.54163C8.12 5.50163 8.97 4.66163 10 4.66163C11.03 4.66163 11.88 5.50163 11.88 6.54163C11.88 7.58163 11.03 8.42163 10 8.42163Z" fill="#BA4141"/>
</svg>
