<svg width="24" height="25" viewBox="0 0 24 25" fill="none" xmlns="http://www.w3.org/2000/svg">
<path d="M22 16.2994C22 19.9394 19.83 22.1094 16.19 22.1094H15C14.45 22.1094 14 21.6594 14 21.1094V15.3394C14 15.0694 14.22 14.8394 14.49 14.8394L16.25 14.8094C16.39 14.7994 16.51 14.6994 16.54 14.5594L16.89 12.6494C16.92 12.4694 16.78 12.2994 16.59 12.2994L14.46 12.3294C14.18 12.3294 13.96 12.1094 13.95 11.8394L13.91 9.38937C13.91 9.22937 14.04 9.08939 14.21 9.08939L16.61 9.04938C16.78 9.04938 16.91 8.91939 16.91 8.74939L16.87 6.34937C16.87 6.17937 16.74 6.04938 16.57 6.04938L13.87 6.08939C12.21 6.11939 10.89 7.47937 10.92 9.13937L10.97 11.8894C10.98 12.1694 10.76 12.3894 10.48 12.3994L9.28 12.4194C9.11 12.4194 8.98001 12.5494 8.98001 12.7194L9.01001 14.6194C9.01001 14.7894 9.14 14.9194 9.31 14.9194L10.51 14.8994C10.79 14.8994 11.01 15.1194 11.02 15.3894L11.11 21.0894C11.12 21.6494 10.67 22.1094 10.11 22.1094H7.81C4.17 22.1094 2 19.9394 2 16.2894V7.91937C2 4.27937 4.17 2.10938 7.81 2.10938H16.19C19.83 2.10938 22 4.27937 22 7.91937V16.2994Z" fill="black"/>
</svg>
