<svg width="24" height="25" viewBox="0 0 24 25" fill="none" xmlns="http://www.w3.org/2000/svg">
<path d="M4.5 10.5994V16.5394C4.5 16.8494 4.64 17.1494 4.87 17.3494L10.23 21.9394C10.93 22.5394 12 22.0394 12 21.1294V17.0295H16.91C17.86 17.0295 18.34 15.8794 17.67 15.1994L12 9.52945H5.57001C4.98001 9.51945 4.5 9.99943 4.5 10.5994Z" fill="black"/>
<path d="M18.43 2.01953H7.09004C6.14004 2.01953 5.66003 3.16952 6.33003 3.84952L12 9.51953H18.43C19.02 9.51953 19.5 9.03952 19.5 8.44952V3.08954C19.5 2.49954 19.02 2.01953 18.43 2.01953Z" fill="black"/>
</svg>
