<svg width="24" height="25" viewBox="0 0 24 25" fill="none" xmlns="http://www.w3.org/2000/svg">
<path d="M21.74 11.1794C21.69 10.6694 21.26 10.2894 20.75 10.2894H13.2C12.65 10.2894 12.2 10.7394 12.2 11.2894V12.9994C12.2 13.5494 12.65 13.9994 13.2 13.9994H17.71C17.6 14.9194 17 16.3094 15.67 17.2394C14.82 17.8294 13.69 18.2394 12.2 18.2394C12.13 18.2394 12.07 18.2394 12 18.2294C9.44995 18.1494 7.28996 16.4394 6.50996 14.0894C6.29996 13.4594 6.17995 12.7994 6.17995 12.1094C6.17995 11.4194 6.29995 10.7494 6.49995 10.1294C6.55995 9.94936 6.62995 9.76939 6.70995 9.58939C7.62995 7.51939 9.63995 6.05938 12 5.98938C12.06 5.97938 12.13 5.97937 12.2 5.97937C13.63 5.97937 14.7 6.44936 15.45 6.96936C15.84 7.23936 16.36 7.17937 16.7 6.84937L18.09 5.48938C18.53 5.05938 18.49 4.32936 17.99 3.96936C16.4 2.79936 14.46 2.10938 12.2 2.10938C12.13 2.10938 12.07 2.10938 12 2.11938C8.16995 2.18938 4.87995 4.40938 3.26995 7.61938C2.58995 8.97938 2.19995 10.4994 2.19995 12.1094C2.19995 13.7194 2.58995 15.2394 3.26995 16.5994H3.27995C4.88995 19.8094 8.17995 22.0294 12 22.0994C12.07 22.1094 12.13 22.1094 12.2 22.1094C14.9 22.1094 17.17 21.2194 18.82 19.6894C20.71 17.9394 21.8 15.3794 21.8 12.3294C21.8 11.8994 21.78 11.5294 21.74 11.1794Z" fill="black"/>
</svg>
