<svg width="24" height="25" viewBox="0 0 24 25" fill="none" xmlns="http://www.w3.org/2000/svg">
<path d="M12 4.78149C7.21996 4.78149 3.32996 8.67149 3.32996 13.4515C3.32996 18.2315 7.21996 22.1315 12 22.1315C16.78 22.1315 20.67 18.2415 20.67 13.4615C20.67 8.68149 16.78 4.78149 12 4.78149ZM12.75 13.1315C12.75 13.5415 12.41 13.8815 12 13.8815C11.59 13.8815 11.25 13.5415 11.25 13.1315V8.13149C11.25 7.72149 11.59 7.38149 12 7.38149C12.41 7.38149 12.75 7.72149 12.75 8.13149V13.1315Z" fill="#EACC2D"/>
<path d="M14.89 3.58147H9.11001C8.71001 3.58147 8.39001 3.26147 8.39001 2.86147C8.39001 2.46147 8.71001 2.13147 9.11001 2.13147H14.89C15.29 2.13147 15.61 2.45147 15.61 2.85147C15.61 3.25147 15.29 3.58147 14.89 3.58147Z" fill="#EACC2D"/>
</svg>
