<svg width="24" height="25" viewBox="0 0 24 25" fill="none" xmlns="http://www.w3.org/2000/svg">
<path d="M21.98 11.5193C21.64 5.71933 16.37 1.24934 10.3 2.24934C6.12004 2.93934 2.77005 6.32932 2.12005 10.5093C1.74005 12.9293 2.24007 15.2193 3.33007 17.1093L2.44006 20.4193C2.24006 21.1693 2.93004 21.8493 3.67004 21.6393L6.93005 20.7393C8.41005 21.6093 10.14 22.1093 11.99 22.1093C17.63 22.1093 22.31 17.1393 21.98 11.5193ZM16.8801 15.8293C16.7901 16.0093 16.68 16.1793 16.54 16.3393C16.29 16.6093 16.02 16.8093 15.72 16.9293C15.42 17.0593 15.09 17.1193 14.74 17.1193C14.23 17.1193 13.68 16.9993 13.11 16.7493C12.53 16.4993 11.9601 16.1693 11.3901 15.7593C10.8101 15.3393 10.2701 14.8693 9.75005 14.3593C9.23005 13.8393 8.77003 13.2893 8.35003 12.7193C7.94003 12.1493 7.61005 11.5793 7.37005 11.0093C7.13005 10.4393 7.01006 9.88933 7.01006 9.36933C7.01006 9.02933 7.07006 8.69933 7.19006 8.39933C7.31006 8.08933 7.50007 7.80933 7.77007 7.55933C8.09007 7.23933 8.44005 7.08933 8.81005 7.08933C8.95005 7.08933 9.09002 7.11933 9.22002 7.17933C9.35002 7.23933 9.47005 7.32933 9.56005 7.45933L10.72 9.09931C10.81 9.22931 10.88 9.33932 10.92 9.44932C10.97 9.55932 10.99 9.65932 10.99 9.75932C10.99 9.87932 10.9501 9.99933 10.8801 10.1193C10.8101 10.2393 10.72 10.3593 10.6 10.4793L10.22 10.8793C10.16 10.9393 10.1401 10.9993 10.1401 11.0793C10.1401 11.1193 10.15 11.1593 10.16 11.1993C10.18 11.2393 10.1901 11.2693 10.2001 11.2993C10.2901 11.4693 10.45 11.6793 10.67 11.9393C10.9 12.1993 11.1401 12.4693 11.4001 12.7293C11.6701 12.9993 11.9301 13.2393 12.2001 13.4693C12.4601 13.6893 12.68 13.8393 12.85 13.9293C12.88 13.9393 12.9101 13.9593 12.9401 13.9693C12.9801 13.9893 13.0201 13.9893 13.0701 13.9893C13.1601 13.9893 13.2201 13.9593 13.2801 13.8993L13.66 13.5193C13.79 13.3893 13.9101 13.2993 14.0201 13.2393C14.1401 13.1693 14.2501 13.1293 14.3801 13.1293C14.4801 13.1293 14.5801 13.1493 14.6901 13.1993C14.8001 13.2493 14.92 13.3093 15.04 13.3993L16.7001 14.5793C16.8301 14.6693 16.92 14.7793 16.98 14.8993C17.03 15.0293 17.0601 15.1493 17.0601 15.2893C17.0001 15.4593 16.9601 15.6493 16.8801 15.8293Z" fill="black"/>
</svg>
