<svg width="24" height="25" viewBox="0 0 24 25" fill="none" xmlns="http://www.w3.org/2000/svg">
<path d="M19.0901 12.6766C18.9301 12.6766 18.7701 12.6266 18.6301 12.5166C14.6001 9.40657 9.39005 9.40657 5.36005 12.5166C5.03005 12.7666 4.56005 12.7066 4.31005 12.3866C4.06005 12.0566 4.12005 11.5866 4.44005 11.3366C9.03005 7.78657 14.9601 7.78657 19.5401 11.3366C19.8701 11.5866 19.9301 12.0566 19.6701 12.3866C19.5401 12.5766 19.3201 12.6766 19.0901 12.6766Z" fill="#2B59FF"/>
<path d="M22 9.19657C21.84 9.19657 21.68 9.14657 21.54 9.03657C15.74 4.55657 8.25001 4.55657 2.46001 9.03657C2.13001 9.28657 1.66001 9.22657 1.41001 8.90657C1.15001 8.58657 1.21001 8.10657 1.54001 7.85657C7.89001 2.94657 16.1 2.94657 22.46 7.85657C22.79 8.10657 22.85 8.57657 22.59 8.90657C22.45 9.09657 22.22 9.19657 22 9.19657Z" fill="#2B59FF"/>
<path d="M17.2099 16.3266C17.0499 16.3266 16.8899 16.2766 16.7499 16.1666C13.8699 13.9366 10.1399 13.9366 7.24995 16.1666C6.91995 16.4166 6.44995 16.3566 6.19995 16.0366C5.94995 15.7066 6.00995 15.2366 6.32995 14.9866C9.76995 12.3266 14.2199 12.3266 17.6599 14.9866C17.9899 15.2366 18.0499 15.7066 17.7899 16.0366C17.6499 16.2266 17.4299 16.3266 17.2099 16.3266Z" fill="#2B59FF"/>
<path d="M14.6 19.9865C14.44 19.9865 14.28 19.9365 14.14 19.8265C12.84 18.8165 11.15 18.8165 9.85004 19.8265C9.52004 20.0765 9.05004 20.0165 8.80004 19.6965C8.55004 19.3665 8.61004 18.8965 8.93004 18.6465C10.79 17.2065 13.19 17.2065 15.05 18.6465C15.38 18.8965 15.44 19.3665 15.18 19.6965C15.05 19.8765 14.83 19.9865 14.6 19.9865Z" fill="#2B59FF"/>
</svg>
